<?xml version="1.0" standalone="no"?>
<!DOCTYPE svg PUBLIC "-//W3C//DTD SVG 1.1//EN" "http://www.w3.org/Graphics/SVG/1.1/DTD/svg11.dtd" >
<svg xmlns="http://www.w3.org/2000/svg">
<metadata></metadata>
<defs>
<font id="measureregular" horiz-adv-x="377" >
<font-face units-per-em="1000" ascent="750" descent="-250" />
<missing-glyph horiz-adv-x="240" />
<glyph unicode="&#xfb01;" horiz-adv-x="396" d="M269 672v12q0 16 -9 29t-27 13h-34q-18 0 -28.5 -12.5t-10.5 -30.5v-58h191v-625h-80v545h-111v-545h-80v545h-50v80h50v70q0 23 10 43.5t26.5 35.5t37.5 23.5t44 8.5h39q52 0 84 -32t32 -79v-23h-84z" />
<glyph unicode="&#xfb03;" horiz-adv-x="577" d="M450 672v12q0 16 -9 29t-27 13h-34q-18 0 -28.5 -12.5t-10.5 -30.5v-58h191v-625h-80v545h-111v-545h-80v545h-111v-545h-80v545h-50v80h50v60q0 23 9 43.5t24 35.5t35 23.5t43 8.5l50 -5v-75h-38q-20 0 -31.5 -11.5t-11.5 -31.5v-48h111v70q0 23 10 43.5t26.5 35.5 t37.5 23.5t44 8.5h39q52 0 84 -32t32 -79v-23h-84z" />
<glyph unicode="&#xfb04;" horiz-adv-x="587" d="M462 796l80 10v-806h-80v545h-111v-545h-80v545h-111v-545h-80v545h-50v80h50v60q0 23 9 43.5t24 35.5t35 23.5t43 8.5l50 -5v-75h-38q-20 0 -31.5 -11.5t-11.5 -31.5v-48h111v70q0 23 9 43.5t24 35.5t35 23.5t43 8.5zM462 726h-68q-20 0 -31.5 -11.5t-11.5 -31.5v-58 h111v101z" />
<glyph horiz-adv-x="0" />
<glyph unicode="&#xd;" horiz-adv-x="240" />
<glyph unicode=" "  horiz-adv-x="240" />
<glyph unicode="&#x09;" horiz-adv-x="240" />
<glyph unicode="&#xa0;" horiz-adv-x="240" />
<glyph unicode="!" horiz-adv-x="166" d="M35 97h96v-97h-96v97zM35 787h96l-15 -587h-66z" />
<glyph unicode="&#x22;" horiz-adv-x="219" d="M90 849v-176h-57v176h57zM186 849v-176h-57v176h57z" />
<glyph unicode="#" horiz-adv-x="546" d="M370 787h80l-25 -240h91v-71h-98l-15 -149h113v-71h-120l-26 -256h-80l26 256h-120l-26 -256h-80l26 256h-86v71h93l15 149h-108v71h115l25 240h80l-25 -240h120zM203 327h120l15 149h-120z" />
<glyph unicode="$" horiz-adv-x="430" d="M251 792q28 -1 52.5 -12t43 -30t29 -44t10.5 -53v-95h-80v95q0 25 -17 42t-42 17h-64q-24 0 -41.5 -17t-17.5 -42v-127q0 -25 17.5 -42t41.5 -17h68q28 0 53.5 -11t44.5 -29.5t30 -44t11 -54.5v-194q0 -29 -11 -54.5t-30 -44t-44.5 -29.5t-53.5 -11v-114h-70v114 q-29 0 -54.5 11t-45 29.5t-30.5 44t-11 54.5v144h80v-144q0 -25 17 -42t42 -17h72q24 0 41.5 17t17.5 42v194q0 25 -17.5 42t-41.5 17h-68q-29 0 -54 11t-44 29.5t-30 44t-11 54.5v127q0 29 11 54.5t29.5 44t43.5 29.5t53 11v114h70v-114z" />
<glyph unicode="%" horiz-adv-x="527" d="M447 503v-89l-377 -300v89zM51 506q0 25 9.5 48t26.5 39.5t39 26.5t48 10q25 0 48 -10t39.5 -26.5t26.5 -39.5t10 -48q0 -26 -10 -48t-26.5 -39t-39.5 -26.5t-48 -9.5q-26 0 -48 9.5t-39 26.5t-26.5 39t-9.5 48zM122 506q0 -23 14.5 -37.5t37.5 -14.5t38 14.5t15 37.5 t-15 38t-38 15t-37.5 -15t-14.5 -38zM231 118q0 25 9.5 48t26.5 39.5t39 26.5t48 10q25 0 48 -10t39.5 -26.5t26.5 -39.5t10 -48q0 -26 -10 -48t-26.5 -39t-39.5 -26.5t-48 -9.5q-26 0 -48 9.5t-39 26.5t-26.5 39t-9.5 48zM302 118q0 -23 14.5 -37.5t37.5 -14.5t38 14.5 t15 37.5t-15 38t-38 15t-37.5 -15t-14.5 -38z" />
<glyph unicode="&#x26;" horiz-adv-x="500" d="M481 487q0 -53 -24.5 -85t-66.5 -45v-223q0 -29 -11 -54.5t-29.5 -44t-44 -29.5t-54.5 -11h-72q-29 0 -54 11t-44 29.5t-30 44t-11 54.5v274q0 25 15 51t33 40v20q-17 14 -30.5 39t-13.5 48v47q0 29 11 54.5t29.5 44t44 29.5t54.5 11h64q28 0 53.5 -11t44.5 -29.5t30 -44 t11 -54.5v-51h-80v51q0 25 -17.5 42t-41.5 17h-64q-25 0 -42 -17t-17 -42v-47q0 -25 17.5 -42t41.5 -17h69v-80h-73q-24 0 -41.5 -17t-17.5 -42v-274q0 -25 17.5 -42t41.5 -17h72q25 0 42 17t17 42v218q-25 -1 -41.5 -18.5t-16.5 -55.5h-73q0 32 10.5 59t29 46.5t43.5 30 t54 10.5h36q23 0 39.5 12.5t16.5 50.5h73z" />
<glyph unicode="'" horiz-adv-x="123" d="M90 849v-176h-57v176h57z" />
<glyph unicode="(" horiz-adv-x="281" d="M149 370q0 -133 36 -257t95 -219h-70q-35 46 -63.5 101.5t-49 116.5t-31.5 126t-11 132t9.5 135.5t28 133t45.5 122.5t62 105h70q-29 -47 -51.5 -106t-38 -123.5t-23.5 -132.5t-8 -134z" />
<glyph unicode=")" horiz-adv-x="281" d="M132 370q0 66 -8 134t-23.5 132.5t-38 123.5t-51.5 106h70q35 -47 62 -105t45.5 -122.5t28 -133t9.5 -135.5t-11 -132t-31.5 -126t-49 -116.5t-63.5 -101.5h-70q59 95 95 219t36 257z" />
<glyph unicode="*" horiz-adv-x="289" d="M145 627l-38 -68l-57 42l53 56l-78 17l23 67l71 -35l-11 81h72l-10 -81l73 36l21 -67l-78 -18l55 -56l-57 -41z" />
<glyph unicode="+" horiz-adv-x="337" d="M30 377h103v112h71v-112h102v-71h-102v-113h-71v113h-103v71z" />
<glyph unicode="," horiz-adv-x="166" d="M35 97h96v-112l-45 -97h-31l20 97v15h-40v97z" />
<glyph unicode="-" horiz-adv-x="296" d="M30 377h236v-71h-236v71z" />
<glyph unicode="." horiz-adv-x="166" d="M35 97h96v-97h-96v97z" />
<glyph unicode="/" horiz-adv-x="340" d="M230 787h80l-200 -787h-80z" />
<glyph unicode="0" horiz-adv-x="456" d="M267 792q29 0 54.5 -11t44 -29.5t29.5 -44t11 -54.5v-519q0 -29 -11 -54.5t-29.5 -44t-44 -29.5t-54.5 -11h-78q-29 0 -54 11t-44 29.5t-30 44t-11 54.5v519q0 29 11 54.5t30 44t44 29.5t54 11h78zM326 472h-10l-186 -279v-59q0 -25 17.5 -42t41.5 -17h78q25 0 42 17 t17 42v338zM130 332h10l186 279v42q0 25 -17 42t-42 17h-78q-24 0 -41.5 -17t-17.5 -42v-321z" />
<glyph unicode="1" horiz-adv-x="456" d="M50 529l125 258h141v-707h88v-80h-260v80h92v627h-18l-100 -209z" />
<glyph unicode="2" horiz-adv-x="456" d="M406 0h-356v125l265 387q7 10 9 23.5t2 23.5v94q0 25 -17 42t-42 17h-78q-25 0 -42 -17t-17 -42v-124h-80v124q0 29 11 54.5t29.5 44t44 29.5t54.5 11h78q29 0 54.5 -11t44 -29.5t29.5 -44t11 -54.5v-104q0 -20 -5 -37t-13 -30l-258 -377v-25h276v-80z" />
<glyph unicode="3" horiz-adv-x="456" d="M50 792h352v-120l-133 -186v-19q28 0 53 -11.5t44 -30t29.5 -44t10.5 -53.5v-194q0 -29 -11 -54.5t-29.5 -44t-44 -29.5t-54.5 -11h-78q-29 0 -54.5 11t-44 29.5t-29.5 44t-11 54.5v94h80v-94q0 -25 17 -42t42 -17h78q25 0 42 17t17 42v194q0 25 -17 42t-42 17h-103v80 l158 220v25h-272v80z" />
<glyph unicode="4" horiz-adv-x="456" d="M406 0h-80v210h-276v115l215 462h141v-497h20v-80h-20v-210zM130 315v-25h196v417h-18z" />
<glyph unicode="5" horiz-adv-x="456" d="M50 787h346v-80h-266v-240h137q29 0 54.5 -11t44 -29.5t29.5 -44t11 -54.5v-194q0 -29 -11 -54.5t-29.5 -44t-44 -29.5t-54.5 -11h-78q-29 0 -54.5 11t-44 29.5t-29.5 44t-11 54.5v94h80v-94q0 -25 17 -42t42 -17h78q25 0 42 17t17 42v194q0 25 -17 42t-42 17h-217v400z " />
<glyph unicode="6" horiz-adv-x="456" d="M325 787l-141 -325h83q29 0 54.5 -11t44 -29.5t29.5 -44t11 -54.5v-189q0 -29 -11 -54.5t-29.5 -44t-44 -29.5t-54.5 -11h-78q-29 0 -54.5 11t-44 29.5t-29.5 44t-11 54.5v179q0 35 13 64l176 410h86zM189 75h50q46 0 66.5 17t20.5 42v189q0 25 -17 42t-42 17h-118 q-10 -24 -14.5 -39.5t-4.5 -29.5v-179q0 -25 17 -42t42 -17z" />
<glyph unicode="7" horiz-adv-x="456" d="M149 0l177 692v15h-296v80h376v-95l-177 -692h-80z" />
<glyph unicode="8" horiz-adv-x="456" d="M262 792q29 0 54.5 -11t44 -29.5t29.5 -44t11 -54.5v-127q0 -14 -6 -29.5t-14.5 -29.5t-19 -24t-19.5 -14q10 -4 21.5 -14.5t21 -25t15.5 -30.5t6 -31v-194q0 -29 -11 -54.5t-29.5 -44t-44 -29.5t-54.5 -11h-78q-29 0 -54.5 11t-44 29.5t-29.5 44t-11 54.5v194q0 15 6 31 t15.5 30.5t21 25t21.5 14.5q-9 4 -19.5 14t-19 24t-14.5 29.5t-6 29.5v127q0 29 11 54.5t29.5 44t44 29.5t54.5 11h68zM189 75h78q25 0 42 17t17 42v194q0 25 -17 42t-42 17h-78q-25 0 -42 -17t-17 -42v-194q0 -25 17 -42t42 -17zM267 467q23 2 38.5 18.5t15.5 40.5v127 q0 25 -17 42t-42 17h-68q-25 0 -42 -17t-17 -42v-127q0 -24 15.5 -40.5t38.5 -18.5h78z" />
<glyph unicode="9" horiz-adv-x="456" d="M130 0l142 325h-83q-29 0 -54.5 11t-44 29.5t-29.5 44t-11 54.5v189q0 29 11 54.5t29.5 44t44 29.5t54.5 11h78q26 0 51 -10t44.5 -28t31.5 -43.5t12 -57.5v-179q0 -32 -13 -64l-178 -410h-85zM267 712h-52q-45 0 -65 -17t-20 -42v-189q0 -25 17 -42t42 -17h118l2 5 q8 20 12.5 35t4.5 29v179q0 25 -17 42t-42 17z" />
<glyph unicode=":" horiz-adv-x="166" d="M35 517h96v-97h-96v97zM35 97h96v-97h-96v97z" />
<glyph unicode=";" horiz-adv-x="166" d="M35 0h40v-15l-20 -97h31l45 97v112h-96v-97zM35 517h96v-97h-96v97z" />
<glyph unicode="&#x3c;" horiz-adv-x="349" d="M30 377l276 113v-71l-175 -72v-12l175 -71v-71l-276 113v71z" />
<glyph unicode="=" horiz-adv-x="336" d="M30 437h276v-71h-276v71zM30 317h276v-71h-276v71z" />
<glyph unicode="&#x3e;" horiz-adv-x="349" d="M319 306l-276 -113v71l175 71v12l-175 72v71l276 -113v-71z" />
<glyph unicode="?" horiz-adv-x="416" d="M275 512q8 10 9.5 23.5t1.5 23.5v94q0 25 -17 42t-42 17h-38q-25 0 -42 -17t-17 -42v-124h-80v124q0 29 11 54.5t29.5 44t44 29.5t54.5 11h38q29 0 54.5 -11t44 -29.5t29.5 -44t11 -54.5v-104q0 -20 -5 -37t-13 -30l-93 -119v-163h-74v190zM169 97h96v-97h-96v97z" />
<glyph unicode="@" horiz-adv-x="694" d="M534 -34q-15 -11 -36 -22t-45 -19.5t-50.5 -14t-53.5 -5.5q-86 0 -145 29.5t-95.5 83.5t-52.5 129t-16 167q0 86 14 160t49 128.5t94.5 85.5t151.5 31q91 0 150.5 -31t93.5 -85.5t47.5 -128.5t13.5 -160q0 -34 -2 -77t-14.5 -81.5t-39 -64.5t-75.5 -26q-34 0 -60 17.5 t-46 46.5q-11 -11 -23.5 -22t-26.5 -20.5t-30.5 -15.5t-35.5 -6q-23 0 -43.5 8.5t-35.5 23.5t-23.5 35.5t-8.5 43.5v273q0 23 9 43.5t24.5 35.5t36 23.5t43.5 8.5h75q47 0 78 -30.5t31 -80.5v-259q0 -20 9.5 -33.5t29.5 -13.5t30 13.5t14 32.5q6 29 7 60t1 63q0 70 -7.5 130 t-31.5 104.5t-69 69.5t-121 25t-122 -25t-70.5 -69.5t-32.5 -104.5t-8 -130q0 -76 10 -137.5t36.5 -105t71.5 -67t115 -23.5q46 0 86 15.5t64 35.5zM407 435q0 20 -12.5 33.5t-32.5 13.5h-43q-20 0 -34.5 -13.5t-14.5 -33.5v-243q0 -20 13.5 -33.5t33.5 -13.5h10q8 0 20 6 t24 13.5t22 15.5t14 12v243z" />
<glyph unicode="A" horiz-adv-x="462" d="M424 0h-80l-30 287h-167l-29 -287h-80l72 707l-30 10v70h264zM155 367h151l-34 340h-82z" />
<glyph unicode="B" horiz-adv-x="416" d="M237 0h-197v787h192q29 0 54.5 -11t44 -29.5t29.5 -44t11 -54.5v-122q0 -23 -14 -48t-30 -39v-19q18 -14 33.5 -40.5t15.5 -51.5v-189q0 -29 -11 -54.5t-29.5 -44t-44 -29.5t-54.5 -11zM237 80q25 0 42 17t17 42v189q0 25 -17 42t-42 17h-117v-307h117zM120 467h117 q23 2 38.5 18.5t15.5 40.5v122q0 25 -17 42t-42 17h-112v-240z" />
<glyph unicode="C" horiz-adv-x="433" d="M393 278v-144q0 -29 -11 -54.5t-29.5 -44t-44 -29.5t-54.5 -11h-75q-29 0 -54 11t-44 29.5t-30 44t-11 54.5v519q0 29 11 54.5t30 44t44 29.5t54 11h75q29 0 54.5 -11t44 -29.5t29.5 -44t11 -54.5v-95h-80v95q0 25 -17 42t-42 17h-75q-24 0 -41.5 -17t-17.5 -42v-519 q0 -25 17.5 -42t41.5 -17h75q25 0 42 17t17 42v144h80z" />
<glyph unicode="D" horiz-adv-x="421" d="M10 787h232q28 0 53.5 -11t44.5 -29.5t30 -44t11 -54.5v-509q0 -29 -11 -54.5t-30 -44t-44.5 -29.5t-53.5 -11h-202v707l-30 10v70zM120 80h122q24 0 41.5 17t17.5 42v509q0 25 -17.5 42t-41.5 17h-122v-627z" />
<glyph unicode="E" horiz-adv-x="374" d="M329 707h-209v-240h179v-80h-179v-307h214v-80h-294v787h289v-80z" />
<glyph unicode="F" horiz-adv-x="360" d="M329 707h-209v-240h179v-80h-179v-387h-80v787h289v-80z" />
<glyph unicode="G" horiz-adv-x="440" d="M211 349v80h189v-295q0 -29 -11 -54.5t-29.5 -44t-44 -29.5t-54.5 -11h-82q-29 0 -54 11t-44 29.5t-30 44t-11 54.5v519q0 29 11 54.5t30 44t44 29.5t54 11h82q29 0 54.5 -11t44 -29.5t29.5 -44t11 -54.5v-95h-80v95q0 25 -17 42t-42 17h-82q-24 0 -41.5 -17t-17.5 -42 v-519q0 -25 17.5 -42t41.5 -17h82q25 0 42 17t17 42v215h-109z" />
<glyph unicode="H" horiz-adv-x="436" d="M396 0h-80v387h-196v-387h-80v787h80v-320h196v320h80v-787z" />
<glyph unicode="I" horiz-adv-x="220" d="M70 707l-40 10v70h160v-70l-40 -10v-627l40 -10v-70h-160v70l40 10v627z" />
<glyph unicode="J" horiz-adv-x="440" d="M400 134q0 -29 -11 -54.5t-30 -44t-44.5 -29.5t-53.5 -11h-82q-29 0 -54.5 11t-44 29.5t-29.5 44t-11 54.5v144h80v-144q0 -25 17 -42t42 -17h82q24 0 41.5 17t17.5 42v573l-30 10v70h110v-653z" />
<glyph unicode="K" horiz-adv-x="425" d="M382 717l-30 -10l-68 -276l86 -351l30 -10v-70h-90l-95 387h-95v-387h-80v787h80v-320h93l79 320h90v-70z" />
<glyph unicode="L" horiz-adv-x="360" d="M326 0h-286v787h80v-707h206v-80z" />
<glyph unicode="M" horiz-adv-x="554" d="M120 0h-80v787h162l65 -320h20l65 320h162v-787h-80v707h-17l-64 -320h-152l-64 320h-17v-707z" />
<glyph unicode="N" horiz-adv-x="441" d="M120 0h-80v787h157l108 -707h16v707h80v-787h-161l-107 707h-13v-707z" />
<glyph unicode="O" horiz-adv-x="445" d="M266 792q29 0 54.5 -11t44 -29.5t29.5 -44t11 -54.5v-519q0 -29 -11 -54.5t-29.5 -44t-44 -29.5t-54.5 -11h-87q-29 0 -54 11t-44 29.5t-30 44t-11 54.5v519q0 29 11 54.5t30 44t44 29.5t54 11h87zM325 653q0 25 -17 42t-42 17h-87q-24 0 -41.5 -17t-17.5 -42v-519 q0 -25 17.5 -42t41.5 -17h87q25 0 42 17t17 42v519z" />
<glyph unicode="P" horiz-adv-x="416" d="M120 0h-80v787h197q29 0 54.5 -11t44 -29.5t29.5 -44t11 -54.5v-222q0 -29 -11 -54.5t-29.5 -44t-44 -29.5t-54.5 -11h-117v-287zM120 367h117q25 0 42 17t17 42v222q0 25 -17 42t-42 17h-117v-340z" />
<glyph unicode="Q" horiz-adv-x="450" d="M190 -5h-11q-29 0 -54 11t-44 29.5t-30 44t-11 54.5v519q0 29 11 54.5t30 44t44 29.5t54 11h92q29 0 54.5 -11t44 -29.5t29.5 -44t11 -54.5v-519q0 -29 -11 -54.5t-29.5 -44t-44 -29.5t-54.5 -11h-11v-101h-69zM330 653q0 25 -17 42t-42 17h-92q-24 0 -41.5 -17 t-17.5 -42v-519q0 -25 17.5 -42t41.5 -17h11v87h70v-87h11q25 0 42 17t17 42v519z" />
<glyph unicode="R" horiz-adv-x="416" d="M120 0h-80v787h197q29 0 54.5 -11t44 -29.5t29.5 -44t11 -54.5v-222q0 -38 -18.5 -69t-48.5 -50l56 -227l30 -10v-70h-90l-71 287h-114v-287zM120 367h117q25 0 42 17t17 42v222q0 25 -17 42t-42 17h-117v-340z" />
<glyph unicode="S" horiz-adv-x="430" d="M44 653q0 29 11 54.5t30 44t44 29.5t54 11h64q29 0 54.5 -11t44 -29.5t29.5 -44t11 -54.5v-95h-80v95q0 25 -17 42t-42 17h-64q-24 0 -41.5 -17t-17.5 -42v-127q0 -25 17.5 -42t41.5 -17h68q28 0 53.5 -11t44.5 -29.5t30 -44t11 -54.5v-194q0 -29 -11 -54.5t-30 -44 t-44.5 -29.5t-53.5 -11h-72q-29 0 -54.5 11t-44 29.5t-29.5 44t-11 54.5v144h80v-144q0 -25 17 -42t42 -17h72q24 0 41.5 17t17.5 42v194q0 25 -17.5 42t-41.5 17h-68q-29 0 -54 11t-44 29.5t-30 44t-11 54.5v127v0z" />
<glyph unicode="T" horiz-adv-x="380" d="M230 0h-80v707h-133v80h346v-80h-133v-707z" />
<glyph unicode="U" horiz-adv-x="440" d="M400 787v-653q0 -29 -11 -54.5t-29.5 -44t-44 -29.5t-54.5 -11h-82q-29 0 -54 11t-44 29.5t-30 44t-11 54.5v653h80v-653q0 -25 17.5 -42t41.5 -17h82q25 0 42 17t17 42v653h80z" />
<glyph unicode="V" horiz-adv-x="436" d="M323 0h-210l-80 787h80l72 -707h66l72 707h80z" />
<glyph unicode="W" horiz-adv-x="639" d="M400 467l39 -387h15l72 707h80l-80 -787h-159l-39 387h-17l-39 -387h-159l-80 787h80l72 -707h15l39 387h161z" />
<glyph unicode="X" horiz-adv-x="426" d="M110 0h-80l84 425l-76 362h80l67 -320h55l68 320h80l-76 -362l84 -425h-80l-77 387h-53z" />
<glyph unicode="Y" horiz-adv-x="450" d="M265 0h-80v321h-60l-103 466h80l85 -387h75l86 387h80l-103 -466h-60v-321z" />
<glyph unicode="Z" horiz-adv-x="416" d="M376 0h-336v100l256 592v15h-256v80h336v-100l-256 -592v-15h256v-80z" />
<glyph unicode="[" horiz-adv-x="224" d="M182 844v-59h-72v-820h72v-60h-152v939h152z" />
<glyph unicode="\" horiz-adv-x="340" d="M310 0h-80l-200 787h80z" />
<glyph unicode="]" horiz-adv-x="224" d="M194 866v-976h-163v60h83v856h-83v60h163z" />
<glyph unicode="^" horiz-adv-x="381" d="M226 779l123 -376h-71l-83 275h-9l-83 -275h-71l123 376h71z" />
<glyph unicode="_" horiz-adv-x="306" d="M0 -23h306v-71h-306v71z" />
<glyph unicode="`" horiz-adv-x="171" d="M60 782l91 -91l-41 -40l-90 90z" />
<glyph unicode="a" d="M266 0l-7 37h-21q-20 -18 -43 -30t-47 -12t-44 8.5t-34 23.5t-22 35.5t-8 43.5v163q0 23 9 43.5t24 35.5t35 23.5t43 8.5h106v125q0 20 -12.5 33.5t-32.5 13.5h-29q-20 0 -34.5 -13.5t-14.5 -33.5v-69h-69l-7 83q0 23 10.5 43.5t28 35.5t39.5 23.5t45 8.5h42 q23 0 44 -8.5t36.5 -23.5t24.5 -35.5t9 -43.5v-519h-71zM257 300h-90q-20 0 -33.5 -13.5t-13.5 -33.5v-131q0 -20 13.5 -33.5t33.5 -13.5h10q8 0 20 6t24 13.5t22 15.5t14 12v178z" />
<glyph unicode="b" d="M120 806v-218h19q20 18 43 30t47 12t44 -8.5t34 -23.5t22 -35.5t8 -43.5v-413q0 -23 -8 -43.5t-22 -35.5t-34 -23.5t-44 -8.5t-47 12t-43 30h-21l-7 -37h-71v806h80zM257 503q0 20 -13.5 33.5t-33.5 13.5h-10q-8 0 -20 -6t-24 -13.5t-22 -15.5t-14 -12v-381q4 -4 14 -12 t22 -15.5t24 -13.5t20 -6h10q20 0 33.5 13.5t13.5 33.5v381z" />
<glyph unicode="c" horiz-adv-x="367" d="M120 121q0 -20 13.5 -33.5t33.5 -13.5h43q20 0 33.5 14t13.5 34v106h80v-112q0 -24 -9 -46t-25 -38.5t-37 -26.5t-45 -10h-65q-24 0 -45 10t-36.5 26.5t-25 38.5t-9.5 46v400q0 23 9 44t25 36.5t36.5 24.5t43.5 9h67q23 0 44 -9t36.5 -24.5t24.5 -36.5t9 -44l-5 -80h-75 v67q0 20 -13.5 34t-33.5 14h-41q-20 0 -33.5 -13.5t-13.5 -33.5v-383z" />
<glyph unicode="d" d="M337 806v-806h-71l-7 37h-21q-20 -18 -43 -30t-47 -12t-44 8.5t-34 23.5t-22 35.5t-8 43.5v413q0 23 8 43.5t22 35.5t34 23.5t44 8.5t47 -12t43 -30h19v218h80zM120 122q0 -20 13.5 -33.5t33.5 -13.5h10q8 0 20 6t24 13.5t22 15.5t14 12v381q-4 4 -14 12t-22 15.5 t-24 13.5t-20 6h-10q-20 0 -33.5 -13.5t-13.5 -33.5v-381z" />
<glyph unicode="e" horiz-adv-x="369" d="M329 228v-118q0 -23 -9 -44t-24.5 -37t-36 -25t-43.5 -9h-65q-23 0 -43 8.5t-35 23.5t-24 35.5t-9 43.5v413q0 23 9 43.5t24 35.5t35 23.5t43 8.5h67q23 0 43.5 -8.5t35.5 -23.5t23.5 -35.5t8.5 -43.5v-219h-209v-180q0 -20 13.5 -33.5t33.5 -13.5h36q20 0 33 13.5 t14 33.5v108h79zM120 378h129v127q0 20 -13.5 33.5t-33.5 13.5h-35q-20 0 -33.5 -13.5t-13.5 -33.5v-127z" />
<glyph unicode="f" horiz-adv-x="266" d="M80 0v545h-50v80h50v70q0 23 9 43.5t24 35.5t35 23.5t43 8.5l55 -5v-75h-38q-20 0 -33.5 -13.5t-13.5 -33.5v-54h85v-80h-85v-545h-81z" />
<glyph unicode="g" horiz-adv-x="376" d="M336 625v-698q0 -24 -9 -46t-25 -38.5t-36.5 -26.5t-44.5 -10h-60q-24 0 -45 10t-37 26.5t-25 38.5t-9 46l5 32h75v-26q0 -20 13.5 -34t33.5 -14h38q20 0 33.5 13.5t13.5 33.5v105h-19q-20 -18 -43 -30t-47 -12t-44 8.5t-34 23.5t-22 35.5t-8 43.5v413q0 23 8 43.5 t22 35.5t34 23.5t44 8.5t47 -12t43 -30h21l7 37h70zM120 122q0 -20 13.5 -33.5t33.5 -13.5h10q8 0 20 6t24 13.5t22 15.5t14 12v381q-4 4 -14 12t-22 15.5t-24 13.5t-20 6h-10q-20 0 -33.5 -13.5t-13.5 -33.5v-381z" />
<glyph unicode="h" d="M257 503q0 20 -13.5 33.5t-33.5 13.5h-10q-8 0 -20 -6t-24 -13.5t-22 -15.5t-14 -12v-503h-80v806h80v-218h19q20 18 43 30t47 12t44 -8.5t34 -23.5t22 -35.5t8 -43.5v-519h-80v503v0z" />
<glyph unicode="i" horiz-adv-x="170" d="M45 625h80v-625h-80v625zM42 764h86v-87h-86v87z" />
<glyph unicode="j" horiz-adv-x="170" d="M130 625v-708q0 -23 -9 -43.5t-24 -35.5t-35 -23.5t-43 -8.5l-55 5v75h39q20 0 33.5 13.5t13.5 33.5v692h80zM47 764h86v-87h-86v87z" />
<glyph unicode="k" horiz-adv-x="355" d="M40 806h80v-426h51l76 245h82l-87 -278l93 -347h-82l-80 300h-53v-300h-80v806z" />
<glyph unicode="l" horiz-adv-x="160" d="M40 796l80 10v-806h-80v796z" />
<glyph unicode="m" horiz-adv-x="594" d="M474 503q0 20 -15.5 33.5t-35.5 13.5h-10q-8 0 -19.5 -6t-22.5 -13.5t-20.5 -15.5t-13.5 -12v-503h-80v503q0 20 -13.5 33.5t-33.5 13.5h-10q-8 0 -20 -6t-24 -13.5t-22 -15.5t-14 -12v-503h-80v625h70l10 -37h19q20 18 43 30t47 12q29 0 51.5 -11t36.5 -31h28 q19 16 46 29t51 13t44.5 -8.5t35.5 -23.5t23.5 -35.5t8.5 -43.5v-519h-80v503v0z" />
<glyph unicode="n" d="M257 503q0 20 -13.5 33.5t-33.5 13.5h-10q-8 0 -20 -6t-24 -13.5t-22 -15.5t-14 -12v-503h-80v625h70l10 -37h19q20 18 43 30t47 12t44 -8.5t34 -23.5t22 -35.5t8 -43.5v-519h-80v503v0z" />
<glyph unicode="o" d="M337 116q0 -24 -9.5 -46t-25 -38.5t-36.5 -26.5t-45 -10h-65q-24 0 -45 10t-37 26.5t-25 38.5t-9 46v393q0 24 9 46t25 38.5t37 26.5t45 10h65q24 0 45 -10t36.5 -26.5t25 -38.5t9.5 -46v-393zM257 504q0 20 -13.5 33.5t-33.5 13.5h-43q-20 0 -33.5 -14t-13.5 -34v-381 q0 -20 13.5 -34t33.5 -14h43q20 0 33.5 13.5t13.5 33.5v383z" />
<glyph unicode="p" d="M337 519v-413q0 -23 -8 -43.5t-22 -35.5t-34 -23.5t-44 -8.5t-47 12t-43 30h-19v-231h-80v819h70l10 -37h19q20 18 43 30t47 12t44 -8.5t34 -23.5t22 -35.5t8 -43.5zM257 503q0 20 -13.5 33.5t-33.5 13.5h-10q-8 0 -20 -6t-24 -13.5t-22 -15.5t-14 -12v-381q4 -4 14 -12 t22 -15.5t24 -13.5t20 -6h10q20 0 33.5 13.5t13.5 33.5v381z" />
<glyph unicode="q" d="M40 519q0 23 8 43.5t22 35.5t34 23.5t44 8.5t47 -12t43 -30h19l10 37h70v-819h-80v231h-19q-20 -18 -43 -30t-47 -12t-44 8.5t-34 23.5t-22 35.5t-8 43.5v413zM120 122q0 -20 13.5 -33.5t33.5 -13.5h10q8 0 20 6t24 13.5t22 15.5t14 12v381q-4 4 -14 12t-22 15.5 t-24 13.5t-20 6h-10q-20 0 -33.5 -13.5t-13.5 -33.5v-381z" />
<glyph unicode="r" horiz-adv-x="378" d="M258 436v67q0 21 -13.5 34t-33.5 13h-10q-8 0 -20 -6t-24 -13.5t-22 -15.5t-14 -12v-503h-81v625h68l13 -37h19q20 18 43 30t47 12q23 0 42.5 -9t34 -24.5t23 -35.5t8.5 -42l-5 -83h-75z" />
<glyph unicode="s" horiz-adv-x="373" d="M333 107q0 -23 -9 -43.5t-24 -35.5t-35.5 -24t-43.5 -9h-69q-23 0 -43.5 9t-35.5 24t-24 35.5t-9 43.5v121h80v-108q0 -20 13.5 -33.5t33.5 -13.5h39q20 0 33.5 13.5t13.5 33.5v133q0 20 -13.5 34t-33.5 14h-51q-23 0 -44 9t-37 24.5t-25 36.5t-9 44v101q0 23 9.5 44 t25 36.5t36.5 24.5t44 9h60q23 0 43.5 -9t36 -24.5t24.5 -36t9 -43.5l-5 -81h-70v68q0 20 -13.5 33.5t-33.5 13.5h-39q-20 0 -33.5 -13.5t-13.5 -33.5v-77q0 -19 12 -32.5t31 -15.5h59q23 0 43.5 -8.5t35.5 -23.5t23.5 -35t8.5 -43v-162v0z" />
<glyph unicode="t" horiz-adv-x="364" d="M21 625h49l10 131h70v-131h127v-80h-127v-423q0 -20 12 -33.5t32 -13.5h13q20 0 31.5 13.5t11.5 33.5v106h70l5 -122q0 -23 -9.5 -43.5t-25 -35.5t-36 -23.5t-42.5 -8.5h-26q-23 0 -44 9t-37 25t-25.5 37t-9.5 44v435h-49v80z" />
<glyph unicode="u" d="M266 0l-7 37h-21q-20 -18 -43 -30t-47 -12t-44 8.5t-34 23.5t-22 35.5t-8 43.5v519h80v-503q0 -20 13.5 -33.5t33.5 -13.5h10q8 0 20 6t24 13.5t22 15.5t14 12v503h80v-625h-71z" />
<glyph unicode="v" horiz-adv-x="380" d="M260 625h80l-60 -625h-180l-60 625h80l52 -545h35z" />
<glyph unicode="w" horiz-adv-x="626" d="M393 545l45 -465h15l53 545h80l-60 -625h-160l-45 465h-16l-45 -465h-160l-60 625h80l52 -545h16l45 465h160z" />
<glyph unicode="x" horiz-adv-x="412" d="M191 380h29l69 245h83l-78 -279l83 -346h-83l-72 300h-32l-72 -300h-83l83 346l-78 279h83z" />
<glyph unicode="y" horiz-adv-x="380" d="M260 625h80l-68 -712q-5 -49 -37 -78t-74 -29l-55 5v75h39q17 0 31.5 10.5t16.5 27.5l7 76h-100l-60 625h80l52 -545h35z" />
<glyph unicode="z" horiz-adv-x="324" d="M283 625v-108l-156 -405v-32h156v-80h-242v112l156 405v28h-156v80h242z" />
<glyph unicode="{" horiz-adv-x="283" d="M182 738v-292q0 -17 -11.5 -33.5t-23.5 -27.5v-22q13 -11 24 -27t11 -33v-292q0 -20 13.5 -33.5t33.5 -13.5h25v-59h-41q-46 0 -78.5 27t-32.5 74v292q0 20 -13.5 33.5t-33.5 13.5h-25v59h29q18 2 30.5 15t12.5 32v292q0 47 32.5 74t78.5 27h41v-59h-25 q-20 0 -33.5 -13.5t-13.5 -33.5z" />
<glyph unicode="|" horiz-adv-x="220" d="M71 876h78v-986h-78v986z" />
<glyph unicode="}" horiz-adv-x="283" d="M101 738q0 20 -13.5 33.5t-33.5 13.5h-25v59h41q46 0 78.5 -27t32.5 -74v-292q0 -19 12.5 -32t30.5 -15h29v-59h-25q-20 0 -33.5 -13.5t-13.5 -33.5v-292q0 -47 -32.5 -74t-78.5 -27h-41v59h25q20 0 33.5 13.5t13.5 33.5v292q0 17 11 33t24 27v22q-12 11 -23.5 27.5 t-11.5 33.5v292z" />
<glyph unicode="~" horiz-adv-x="394" d="M20 281q0 45 25.5 75.5t70.5 30.5q21 0 43.5 -12t43.5 -26t40 -26t33 -12q20 0 28 13t8 33h60q0 -45 -25.5 -75.5t-70.5 -30.5q-22 0 -45 12t-44.5 26t-40 26t-30.5 12q-20 0 -28 -13t-8 -33h-60z" />
<glyph unicode="&#xa1;" horiz-adv-x="166" d="M35 528.006h96v96.9941h-96v-96.9941zM35 -161.952h96l-15 586.964h-66z" />
<glyph unicode="&#xa2;" horiz-adv-x="407" d="M235 744v-114h16q23 0 44 -9t36.5 -24.5t24.5 -36.5t9 -44v-80h-80v67q0 20 -13.5 34t-33.5 14h-3v-477h5q20 0 33.5 14t13.5 34v106h80v-112q0 -24 -9 -46t-25 -38.5t-37 -26.5t-45 -10h-16v-114h-64v114h-15q-24 0 -45 10t-36.5 26.5t-25 38.5t-9.5 46v400q0 23 9 44 t25 36.5t36.5 24.5t43.5 9h17v114h64zM120 121q0 -20 13.5 -33.5t33.5 -13.5h4v477h-4q-20 0 -33.5 -13.5t-13.5 -33.5v-383z" />
<glyph unicode="&#xa3;" horiz-adv-x="443" d="M426 0h-409v80h13q23 2 38.5 18.5t15.5 40.5v162h-67v71h67v276q0 29 11 54.5t29.5 44t43.5 29.5t53 11h50q28 0 52.5 -11t43 -30t29 -44.5t10.5 -53.5l-10 -95h-70v95q0 25 -17 42t-42 17h-44q-24 0 -41.5 -17t-17.5 -42v-276h149v-71h-149v-162q0 -9 -5 -22.5 t-12 -24.5v-12h279v-80z" />
<glyph unicode="&#xa4;" horiz-adv-x="420" d="M40 312q0 90 34 158l-54 93l68 39l36 -62q39 36 86 36q23 0 45 -10t41 -27l37 63l68 -39l-55 -94q16 -33 25 -72.5t9 -84.5t-8.5 -84.5t-24.5 -72.5l54 -93l-67 -39l-37 62q-20 -17 -41.5 -27t-45.5 -10t-46 10t-41 27l-36 -62l-67 39l53 93q-16 33 -24.5 72.5t-8.5 84.5 zM121 306q0 -38 7 -71t19 -57t28.5 -37.5t35.5 -13.5t35 14.5t28 39.5t19 59t7 72t-7 71t-19 57t-28.5 37.5t-35.5 13.5t-35 -14.5t-28 -39.5t-19 -59t-7 -72z" />
<glyph unicode="&#xa5;" horiz-adv-x="450" d="M77 272h108v49h-108v71h32l-87 395h80l86 -395h73l87 395h80l-88 -395h33v-71h-108v-49h108v-71h-108v-201h-80v201h-108v71z" />
<glyph unicode="&#xa6;" horiz-adv-x="220" d="M71 876h78v-406h-78v406zM71 296h78v-406h-78v406z" />
<glyph unicode="&#xa7;" horiz-adv-x="353" d="M212 522q23 0 43 -9q2 -1 5 -1.5t5 -2.5q26 -14 42 -40t16 -58v-138q0 -15 -10 -30.5t-21 -26.5v-28q11 -12 21 -27t10 -30v-153q0 -23 -9 -43.5t-24 -35.5t-35 -23.5t-43 -8.5h-71q-23 0 -43.5 8.5t-35.5 23.5t-23.5 35.5t-8.5 43.5l5 102h75v-86q0 -20 13.5 -33.5 t33.5 -13.5h39q20 0 33.5 13.5t13.5 33.5v121q0 20 -13.5 33.5t-33.5 13.5h-55q-23 0 -43.5 8.5t-35.5 23.5t-23.5 35.5t-8.5 43.5v138q0 15 9.5 30t20.5 26v28q-11 11 -20.5 26.5t-9.5 31.5v128q0 23 9 43.5t24 35.5t35 23.5t43 8.5h71q23 0 43.5 -8.5t35.5 -23.5 t23.5 -35.5t8.5 -43.5l-5 -83h-75v67q0 20 -13.5 33.5t-33.5 13.5h-39q-20 0 -33.5 -13.5t-13.5 -33.5v-96q0 -19 11.5 -32t29.5 -15h61zM110 289q0 -19 12 -32t31 -15h43q20 0 33.5 13.5t13.5 33.5v106q0 20 -13.5 33.5t-33.5 13.5h-39q-20 0 -33.5 -13.5t-13.5 -33.5v-106 z" />
<glyph unicode="&#xa8;" horiz-adv-x="350" d="M73 768h75v-81h-75v81zM202 768h75v-81h-75v81z" />
<glyph unicode="&#xa9;" horiz-adv-x="496" d="M446 519v-328q0 -23 -8.5 -43.5t-23.5 -35.5t-35.5 -23.5t-43.5 -8.5h-174q-23 0 -43 8.5t-35 23.5t-24 35.5t-9 43.5v328q0 23 9 43.5t24 35.5t35 23.5t43 8.5h174q23 0 43.5 -8.5t35.5 -23.5t23.5 -35.5t8.5 -43.5zM382 518q0 20 -13.5 33.5t-33.5 13.5h-173 q-20 0 -33.5 -13.5t-13.5 -33.5v-326q0 -20 13.5 -33.5t33.5 -13.5h173q20 0 33.5 13.5t13.5 33.5v326zM335 314v-61q0 -24 -14 -42.5t-45 -18.5h-56q-31 0 -45 18.5t-14 42.5v204q0 24 14 42.5t45 18.5h56q31 0 45 -18.5t14 -42.5l-5 -58h-56v31q0 20 -5 23.5t-17 3.5h-8 q-12 0 -17 -3.5t-5 -23.5v-150q0 -20 5 -23.5t17 -3.5h8q12 0 17 3.5t5 23.5v34h61z" />
<glyph unicode="&#xaa;" horiz-adv-x="187" d="M127 532l-10 15h-8q-7 -6 -14.5 -11t-18.5 -5q-46 0 -46 47v64q0 23 14 36t34 13h38v38q0 7 -3.5 12t-10.5 5h-13q-15 0 -15 -16v-15h-40v20q0 23 14 37.5t37 14.5h20q27 0 39.5 -15t12.5 -38v-202h-30zM116 653h-26q-10 0 -14.5 -6t-4.5 -15v-46q0 -14 15 -14q5 0 16 8 t14 11v62z" />
<glyph unicode="&#xab;" horiz-adv-x="339" d="M117 295v-22l62 -142h-64l-75 120v65l75 121h64zM257 295v-22l62 -142h-64l-75 120v65l75 121h64z" />
<glyph unicode="&#xac;" horiz-adv-x="436" d="M30 377h376v-169h-71v98h-305v71z" />
<glyph unicode="&#xad;" horiz-adv-x="296" d="M30 377h236v-71h-236v71z" />
<glyph unicode="&#xae;" horiz-adv-x="496" d="M446 519v-328q0 -23 -8.5 -43.5t-23.5 -35.5t-35.5 -23.5t-43.5 -8.5h-174q-23 0 -43 8.5t-35 23.5t-24 35.5t-9 43.5v328q0 23 9 43.5t24 35.5t35 23.5t43 8.5h174q23 0 43.5 -8.5t35.5 -23.5t23.5 -35.5t8.5 -43.5zM382 518q0 20 -13.5 33.5t-33.5 13.5h-173 q-20 0 -33.5 -13.5t-13.5 -33.5v-326q0 -20 13.5 -33.5t33.5 -13.5h173q20 0 33.5 13.5t13.5 33.5v326zM271 192l-26 124h-23v-124h-61v326h116q31 0 45 -18.5t14 -42.5v-80q0 -18 -7.5 -33t-24.5 -23l28 -129h-61zM222 457v-80h31q12 0 17 3.5t5 23.5v26q0 20 -5 23.5 t-17 3.5h-31z" />
<glyph unicode="&#xb0;" horiz-adv-x="272" d="M30 686q0 45 30.5 75.5t75.5 30.5t75.5 -30.5t30.5 -75.5t-30.5 -75.5t-75.5 -30.5t-75.5 30.5t-30.5 75.5zM90 686q0 -20 13 -33t33 -13t33 13t13 33t-13 33t-33 13t-33 -13t-13 -33z" />
<glyph unicode="&#xb1;" horiz-adv-x="337" d="M30 377h103v112h71v-112h102v-71h-102v-113h-71v113h-103v71zM30 121h276v-71h-276v71z" />
<glyph unicode="&#xb2;" horiz-adv-x="189" d="M32 573l84 105q2 2 2 6v47q0 15 -12 15h-23q-13 0 -13 -14v-37h-40v55q0 16 13 26.5t29 10.5h48q16 0 27.5 -10.5t11.5 -26.5v-69q0 -17 -13 -28l-50 -70v-10h63v-41h-127v41z" />
<glyph unicode="&#xb3;" horiz-adv-x="183" d="M116 640q0 15 -12 15h-34v31l30 50v10h-66v41h123v-39l-32 -50v-7q12 -2 22 -14t10 -23v-85q0 -16 -11.5 -26.5t-27.5 -10.5h-46q-16 0 -29 10.5t-13 26.5v25h38v-7q0 -14 13 -14h23q12 0 12 15v52v0z" />
<glyph unicode="&#xb4;" horiz-adv-x="171" d="M151 741l-90 -90l-41 40l91 91z" />
<glyph unicode="&#xb5;" d="M40 625h80v-503q0 -20 13.5 -33.5t33.5 -13.5h10q8 0 20 6t24 13.5t22 15.5t14 12v503h80v-625h-71l-7 37h-21q-20 -17 -39.5 -29.5t-32.5 -12.5h-15q-16 0 -31 9v-198h-80v819z" />
<glyph unicode="&#xb6;" horiz-adv-x="526" d="M28 674q0 24 8.5 44.5t23.5 35.5t35.5 24t44.5 9h362v-80h-66v-867h-80v867h-136v-867h-80v721q-24 0 -44.5 8.5t-35.5 24t-23.5 36t-8.5 44.5z" />
<glyph unicode="&#xb7;" horiz-adv-x="166" d="M35 387h96v-97h-96v97z" />
<glyph unicode="&#xb8;" horiz-adv-x="150" d="M20 -132h41q12 0 20.5 8.5t8.5 20.5v5q0 12 -8.5 20.5t-20.5 8.5h-25v38l20 31h42l-20 -31q23 -5 37.5 -24t14.5 -43v-5q0 -29 -20 -49t-49 -20h-41v40z" />
<glyph unicode="&#xb9;" horiz-adv-x="187" d="M157 532h-127v41h42v152h-6l-22 -21l-25 28l60 55h34v-214h44v-41z" />
<glyph unicode="&#xba;" horiz-adv-x="187" d="M70 531q-20 0 -30 13t-10 29v172q0 16 10 29t30 13h47q20 0 30 -13t10 -29v-172q0 -16 -10 -29t-30 -13h-47zM105 572q12 0 12 15v144q0 15 -12 15h-22q-13 0 -13 -15v-144q0 -15 13 -15h22z" />
<glyph unicode="&#xbb;" horiz-adv-x="339" d="M160 437h64l75 -121v-65l-75 -120h-64l62 142v22zM20 437h64l75 -121v-65l-75 -120h-64l62 142v22z" />
<glyph unicode="&#xbc;" horiz-adv-x="336" d="M157 532h-127v41h42v152h-6l-22 -21l-25 28l60 55h34v-214h44v-41zM241 787h50l-200 -787h-50zM190 113l76 142h41v-142h10v-41h-10v-72h-41v72h-76v41zM239 113h27v73l-27 -61v-12z" />
<glyph unicode="&#xbd;" horiz-adv-x="336" d="M157 532h-127v41h42v152h-6l-22 -21l-25 28l60 55h34v-214h44v-41zM190 41l84 105q2 2 2 6v47q0 15 -12 15h-23q-13 0 -13 -14v-37h-40v55q0 16 13 26.5t29 10.5h48q16 0 27.5 -10.5t11.5 -26.5v-69q0 -17 -13 -28l-50 -70v-10h63v-41h-127v41zM241 787h50l-200 -787h-50 z" />
<glyph unicode="&#xbe;" horiz-adv-x="336" d="M241 787h50l-200 -787h-50zM116 640v-52q0 -15 -12 -15h-23q-13 0 -13 14v7h-38v-25q0 -16 13 -26.5t29 -10.5h46q16 0 27.5 10.5t11.5 26.5v85q0 11 -10 23t-22 14v7l32 50v39h-123v-41h66v-10l-30 -50v-31h34q12 0 12 -15zM190 72h76v-72h41v72h10v41h-10v142h-41 l-76 -142v-41zM239 125l27 61v-73h-27v12z" />
<glyph unicode="&#xbf;" horiz-adv-x="416" d="M141.017 113.031q-7.99902 -9.99902 -9.49902 -23.498q-1.5 -13.5 -1.5 -23.499v-93.9941q0 -24.999 16.999 -41.998t41.9971 -16.999h37.998q24.998 0 41.9971 16.999t16.999 41.998v123.992h79.9951v-123.992q0 -28.998 -10.999 -54.4971q-11 -25.498 -29.498 -43.9971 q-18.499 -18.499 -43.998 -29.498q-25.498 -10.999 -54.4961 -10.999h-37.998q-28.998 0 -54.4961 10.999q-25.499 10.999 -43.998 29.498q-18.498 18.499 -29.498 43.9971q-10.999 25.499 -10.999 54.4971v103.993q0 19.999 5 36.998q4.99902 16.999 12.999 29.998 l92.9941 118.993v162.989h73.9951v-189.988zM247.011 528.006h-95.9941v96.9941h95.9941v-96.9941z" />
<glyph unicode="&#xc0;" horiz-adv-x="462" d="M424 0h-80l-30 287h-167l-29 -287h-80l72 707l-30 10v70h264zM155 367h151l-34 340h-82zM205 944l91 -91l-41 -40l-90 90z" />
<glyph unicode="&#xc1;" horiz-adv-x="462" d="M424 0h-80l-30 287h-167l-29 -287h-80l72 707l-30 10v70h264zM155 367h151l-34 340h-82zM296 903l-90 -90l-41 40l91 91z" />
<glyph unicode="&#xc2;" horiz-adv-x="462" d="M424 0h-80l-30 287h-167l-29 -287h-80l72 707l-30 10v70h264zM155 367h151l-34 340h-82zM132 861l99 80l99 -80l-35 -45l-64 52l-64 -52z" />
<glyph unicode="&#xc3;" horiz-adv-x="462" d="M424 0h-80l-30 287h-167l-29 -287h-80l72 707l-30 10v70h264zM155 367h151l-34 340h-82zM275 877q19 0 22 14t3 31h47q0 -41 -15.5 -68.5t-56.5 -27.5h-4q-17 1 -28.5 8t-21 15t-17.5 15t-18 7q-19 0 -22 -14t-3 -31h-47q0 20 3.5 37.5t12 30.5t22 20.5t34.5 7.5 q15 0 26.5 -7t21.5 -15.5t19.5 -15.5t21.5 -7z" />
<glyph unicode="&#xc4;" horiz-adv-x="462" d="M424 0h-80l-30 287h-167l-29 -287h-80l72 707l-30 10v70h264zM155 367h151l-34 340h-82zM123 930h75v-81h-75v81zM252 930h75v-81h-75v81z" />
<glyph unicode="&#xc5;" horiz-adv-x="462" d="M424 0h-80l-30 287h-167l-29 -287h-80l72 707l-30 10v70h82q-6 13 -6 30q0 30 20.5 50.5t49.5 20.5q30 0 50.5 -20.5t20.5 -50.5q0 -14 -7 -30h54zM155 367h151l-34 340h-82zM196 817q0 -13 8.5 -21.5t21.5 -8.5q14 0 22.5 8.5t8.5 21.5q0 14 -8.5 22.5t-22.5 8.5 q-13 0 -21.5 -8.5t-8.5 -22.5z" />
<glyph unicode="&#xc6;" horiz-adv-x="646" d="M165 467h147v240h-122zM601 707h-209v-240h179v-80h-179v-307h214v-80h-294v387h-155l-39 -387h-80l80 787h483v-80z" />
<glyph unicode="&#xc7;" horiz-adv-x="433" d="M393 278v-144q0 -29 -11 -54.5t-29.5 -44t-44 -29.5t-54.5 -11h-75q-29 0 -54 11t-44 29.5t-30 44t-11 54.5v519q0 29 11 54.5t30 44t44 29.5t54 11h75q29 0 54.5 -11t44 -29.5t29.5 -44t11 -54.5v-95h-80v95q0 25 -17 42t-42 17h-75q-24 0 -41.5 -17t-17.5 -42v-519 q0 -25 17.5 -42t41.5 -17h75q25 0 42 17t17 42v144h80zM165 -132h41q12 0 20.5 8.5t8.5 20.5v5q0 12 -8.5 20.5t-20.5 8.5h-25v38l20 31h42l-20 -31q23 -5 37.5 -24t14.5 -43v-5q0 -29 -20 -49t-49 -20h-41v40z" />
<glyph unicode="&#xc8;" horiz-adv-x="374" d="M329 707h-209v-240h179v-80h-179v-307h214v-80h-294v787h289v-80zM161 944l91 -91l-41 -40l-90 90z" />
<glyph unicode="&#xc9;" horiz-adv-x="374" d="M329 707h-209v-240h179v-80h-179v-307h214v-80h-294v787h289v-80zM252 903l-90 -90l-41 40l91 91z" />
<glyph unicode="&#xca;" horiz-adv-x="374" d="M329 707h-209v-240h179v-80h-179v-307h214v-80h-294v787h289v-80zM88 861l99 80l99 -80l-35 -45l-64 52l-64 -52z" />
<glyph unicode="&#xcb;" horiz-adv-x="374" d="M329 707h-209v-240h179v-80h-179v-307h214v-80h-294v787h289v-80zM85 930h75v-81h-75v81zM214 930h75v-81h-75v81z" />
<glyph unicode="&#xcc;" horiz-adv-x="220" d="M70 707l-40 10v70h160v-70l-40 -10v-627l40 -10v-70h-160v70l40 10v627zM84 944l91 -91l-41 -40l-90 90z" />
<glyph unicode="&#xcd;" horiz-adv-x="220" d="M70 707l-40 10v70h160v-70l-40 -10v-627l40 -10v-70h-160v70l40 10v627zM175 903l-90 -90l-41 40l91 91z" />
<glyph unicode="&#xce;" horiz-adv-x="220" d="M70 707l-40 10v70h160v-70l-40 -10v-627l40 -10v-70h-160v70l40 10v627zM12 861l99 80l99 -80l-35 -45l-64 52l-64 -52z" />
<glyph unicode="&#xcf;" horiz-adv-x="220" d="M70 707l-40 10v70h160v-70l-40 -10v-627l40 -10v-70h-160v70l40 10v627zM9 930h75v-81h-75v81zM138 930h75v-81h-75v81z" />
<glyph unicode="&#xd0;" horiz-adv-x="421" d="M10 429h30v278l-30 10v70h232q28 0 53.5 -11t44.5 -29.5t30 -44t11 -54.5v-509q0 -29 -11 -54.5t-30 -44t-44.5 -29.5t-53.5 -11h-202v360h-30v69zM120 80h122q24 0 41.5 17t17.5 42v509q0 25 -17.5 42t-41.5 17h-122v-278h111v-69h-111v-280z" />
<glyph unicode="&#xd1;" horiz-adv-x="441" d="M120 0h-80v787h157l108 -707h16v707h80v-787h-161l-107 707h-13v-707zM265 877q19 0 22 14t3 31h47q0 -41 -15.5 -68.5t-56.5 -27.5h-4q-17 1 -28.5 8t-21 15t-17.5 15t-18 7q-19 0 -22 -14t-3 -31h-47q0 20 3.5 37.5t12 30.5t22 20.5t34.5 7.5q15 0 26.5 -7t21.5 -15.5 t19.5 -15.5t21.5 -7z" />
<glyph unicode="&#xd2;" horiz-adv-x="445" d="M266 792q29 0 54.5 -11t44 -29.5t29.5 -44t11 -54.5v-519q0 -29 -11 -54.5t-29.5 -44t-44 -29.5t-54.5 -11h-87q-29 0 -54 11t-44 29.5t-30 44t-11 54.5v519q0 29 11 54.5t30 44t44 29.5t54 11h87zM325 653q0 25 -17 42t-42 17h-87q-24 0 -41.5 -17t-17.5 -42v-519 q0 -25 17.5 -42t41.5 -17h87q25 0 42 17t17 42v519zM199 944l91 -91l-41 -40l-90 90z" />
<glyph unicode="&#xd3;" horiz-adv-x="445" d="M266 792q29 0 54.5 -11t44 -29.5t29.5 -44t11 -54.5v-519q0 -29 -11 -54.5t-29.5 -44t-44 -29.5t-54.5 -11h-87q-29 0 -54 11t-44 29.5t-30 44t-11 54.5v519q0 29 11 54.5t30 44t44 29.5t54 11h87zM325 653q0 25 -17 42t-42 17h-87q-24 0 -41.5 -17t-17.5 -42v-519 q0 -25 17.5 -42t41.5 -17h87q25 0 42 17t17 42v519zM290 903l-90 -90l-41 40l91 91z" />
<glyph unicode="&#xd4;" horiz-adv-x="445" d="M266 792q29 0 54.5 -11t44 -29.5t29.5 -44t11 -54.5v-519q0 -29 -11 -54.5t-29.5 -44t-44 -29.5t-54.5 -11h-87q-29 0 -54 11t-44 29.5t-30 44t-11 54.5v519q0 29 11 54.5t30 44t44 29.5t54 11h87zM325 653q0 25 -17 42t-42 17h-87q-24 0 -41.5 -17t-17.5 -42v-519 q0 -25 17.5 -42t41.5 -17h87q25 0 42 17t17 42v519zM126 861l99 80l99 -80l-35 -45l-64 52l-64 -52z" />
<glyph unicode="&#xd5;" horiz-adv-x="445" d="M266 792q29 0 54.5 -11t44 -29.5t29.5 -44t11 -54.5v-519q0 -29 -11 -54.5t-29.5 -44t-44 -29.5t-54.5 -11h-87q-29 0 -54 11t-44 29.5t-30 44t-11 54.5v519q0 29 11 54.5t30 44t44 29.5t54 11h87zM325 653q0 25 -17 42t-42 17h-87q-24 0 -41.5 -17t-17.5 -42v-519 q0 -25 17.5 -42t41.5 -17h87q25 0 42 17t17 42v519zM269 877q19 0 22 14t3 31h47q0 -41 -15.5 -68.5t-56.5 -27.5h-4q-17 1 -28.5 8t-21 15t-17.5 15t-18 7q-19 0 -22 -14t-3 -31h-47q0 20 3.5 37.5t12 30.5t22 20.5t34.5 7.5q15 0 26.5 -7t21.5 -15.5t19.5 -15.5t21.5 -7z " />
<glyph unicode="&#xd6;" horiz-adv-x="445" d="M266 792q29 0 54.5 -11t44 -29.5t29.5 -44t11 -54.5v-519q0 -29 -11 -54.5t-29.5 -44t-44 -29.5t-54.5 -11h-87q-29 0 -54 11t-44 29.5t-30 44t-11 54.5v519q0 29 11 54.5t30 44t44 29.5t54 11h87zM325 653q0 25 -17 42t-42 17h-87q-24 0 -41.5 -17t-17.5 -42v-519 q0 -25 17.5 -42t41.5 -17h87q25 0 42 17t17 42v519zM123 930h75v-81h-75v81zM252 930h75v-81h-75v81z" />
<glyph unicode="&#xd7;" horiz-adv-x="338" d="M75 485l79 -79h30l78 79l50 -51l-78 -78v-30l78 -78l-50 -51l-78 79h-30l-79 -79l-51 50l80 79v30l-80 79z" />
<glyph unicode="&#xd8;" horiz-adv-x="460" d="M276 792q20 0 38 -5.5t34 -15.5l7 16h75l-30 -72q15 -29 15 -62v-519q0 -29 -11 -54.5t-29.5 -44t-44 -29.5t-54.5 -11h-92q-41 0 -73 20l-6 -15h-75l29 72q-14 28 -14 62v519q0 29 11 54.5t30 44t44 29.5t54 11h92zM125 242h6l186 453q-15 17 -41 17h-92 q-24 0 -41.5 -17t-17.5 -42v-411zM335 545h-6l-186 -454q16 -16 41 -16h92q25 0 42 17t17 42v411z" />
<glyph unicode="&#xd9;" horiz-adv-x="440" d="M400 787v-653q0 -29 -11 -54.5t-29.5 -44t-44 -29.5t-54.5 -11h-82q-29 0 -54 11t-44 29.5t-30 44t-11 54.5v653h80v-653q0 -25 17.5 -42t41.5 -17h82q25 0 42 17t17 42v653h80zM194 944l91 -91l-41 -40l-90 90z" />
<glyph unicode="&#xda;" horiz-adv-x="440" d="M400 787v-653q0 -29 -11 -54.5t-29.5 -44t-44 -29.5t-54.5 -11h-82q-29 0 -54 11t-44 29.5t-30 44t-11 54.5v653h80v-653q0 -25 17.5 -42t41.5 -17h82q25 0 42 17t17 42v653h80zM285 903l-90 -90l-41 40l91 91z" />
<glyph unicode="&#xdb;" horiz-adv-x="440" d="M400 787v-653q0 -29 -11 -54.5t-29.5 -44t-44 -29.5t-54.5 -11h-82q-29 0 -54 11t-44 29.5t-30 44t-11 54.5v653h80v-653q0 -25 17.5 -42t41.5 -17h82q25 0 42 17t17 42v653h80zM121 861l99 80l99 -80l-35 -45l-64 52l-64 -52z" />
<glyph unicode="&#xdc;" horiz-adv-x="440" d="M400 787v-653q0 -29 -11 -54.5t-29.5 -44t-44 -29.5t-54.5 -11h-82q-29 0 -54 11t-44 29.5t-30 44t-11 54.5v653h80v-653q0 -25 17.5 -42t41.5 -17h82q25 0 42 17t17 42v653h80zM118 930h75v-81h-75v81zM247 930h75v-81h-75v81z" />
<glyph unicode="&#xdd;" horiz-adv-x="450" d="M265 0h-80v321h-60l-103 466h80l85 -387h75l86 387h80l-103 -466h-60v-321zM290 903l-90 -90l-41 40l91 91z" />
<glyph unicode="&#xde;" horiz-adv-x="406" d="M40 787h80v-130h107q29 0 54.5 -11t44 -29.5t29.5 -44t11 -54.5v-253q0 -29 -11 -54.5t-29.5 -44t-44 -29.5t-54.5 -11h-107v-126h-80v787zM120 206h107q25 0 42 17t17 42v253q0 25 -17 42t-42 17h-107v-371z" />
<glyph unicode="&#xdf;" horiz-adv-x="426" d="M280 459v-9q16 0 34.5 -7t34.5 -20.5t26.5 -35t10.5 -49.5v-199q0 -29 -11 -55t-29.5 -46t-44 -31.5t-54.5 -11.5q-10 0 -19 4t-18 6v70h37q25 0 42 19.5t17 44.5v189q0 25 -17 42t-42 17h-37v72l68 194q0 25 -17 42t-42 17h-5q-22 0 -37 -16.5t-17 -37.5v-658h-80v545 h-50v80h50v28q0 29 11 54.5t29.5 44t44 29.5t54.5 11t54.5 -11t44 -29.5t29.5 -44t11 -54.5z" />
<glyph unicode="&#xe0;" d="M266 0l-7 37h-21q-20 -18 -43 -30t-47 -12t-44 8.5t-34 23.5t-22 35.5t-8 43.5v163q0 23 9 43.5t24 35.5t35 23.5t43 8.5h106v125q0 20 -12.5 33.5t-32.5 13.5h-29q-20 0 -34.5 -13.5t-14.5 -33.5v-69h-69l-7 83q0 23 10.5 43.5t28 35.5t39.5 23.5t45 8.5h42 q23 0 44 -8.5t36.5 -23.5t24.5 -35.5t9 -43.5v-519h-71zM257 300h-90q-20 0 -33.5 -13.5t-13.5 -33.5v-131q0 -20 13.5 -33.5t33.5 -13.5h10q8 0 20 6t24 13.5t22 15.5t14 12v178zM173 782l91 -91l-41 -40l-90 90z" />
<glyph unicode="&#xe1;" d="M266 0l-7 37h-21q-20 -18 -43 -30t-47 -12t-44 8.5t-34 23.5t-22 35.5t-8 43.5v163q0 23 9 43.5t24 35.5t35 23.5t43 8.5h106v125q0 20 -12.5 33.5t-32.5 13.5h-29q-20 0 -34.5 -13.5t-14.5 -33.5v-69h-69l-7 83q0 23 10.5 43.5t28 35.5t39.5 23.5t45 8.5h42 q23 0 44 -8.5t36.5 -23.5t24.5 -35.5t9 -43.5v-519h-71zM257 300h-90q-20 0 -33.5 -13.5t-13.5 -33.5v-131q0 -20 13.5 -33.5t33.5 -13.5h10q8 0 20 6t24 13.5t22 15.5t14 12v178zM264 741l-90 -90l-41 40l91 91z" />
<glyph unicode="&#xe2;" d="M266 0l-7 37h-21q-20 -18 -43 -30t-47 -12t-44 8.5t-34 23.5t-22 35.5t-8 43.5v163q0 23 9 43.5t24 35.5t35 23.5t43 8.5h106v125q0 20 -12.5 33.5t-32.5 13.5h-29q-20 0 -34.5 -13.5t-14.5 -33.5v-69h-69l-7 83q0 23 10.5 43.5t28 35.5t39.5 23.5t45 8.5h42 q23 0 44 -8.5t36.5 -23.5t24.5 -35.5t9 -43.5v-519h-71zM257 300h-90q-20 0 -33.5 -13.5t-13.5 -33.5v-131q0 -20 13.5 -33.5t33.5 -13.5h10q8 0 20 6t24 13.5t22 15.5t14 12v178zM99 699l99 80l99 -80l-35 -45l-64 52l-64 -52z" />
<glyph unicode="&#xe3;" d="M266 0l-7 37h-21q-20 -18 -43 -30t-47 -12t-44 8.5t-34 23.5t-22 35.5t-8 43.5v163q0 23 9 43.5t24 35.5t35 23.5t43 8.5h106v125q0 20 -12.5 33.5t-32.5 13.5h-29q-20 0 -34.5 -13.5t-14.5 -33.5v-69h-69l-7 83q0 23 10.5 43.5t28 35.5t39.5 23.5t45 8.5h42 q23 0 44 -8.5t36.5 -23.5t24.5 -35.5t9 -43.5v-519h-71zM257 300h-90q-20 0 -33.5 -13.5t-13.5 -33.5v-131q0 -20 13.5 -33.5t33.5 -13.5h10q8 0 20 6t24 13.5t22 15.5t14 12v178zM243 715q19 0 22 14t3 31h47q0 -41 -15.5 -68.5t-56.5 -27.5h-4q-17 1 -28.5 8t-21 15 t-17.5 15t-18 7q-19 0 -22 -14t-3 -31h-47q0 20 3.5 37.5t12 30.5t22 20.5t34.5 7.5q15 0 26.5 -7t21.5 -15.5t19.5 -15.5t21.5 -7z" />
<glyph unicode="&#xe4;" d="M266 0l-7 37h-21q-20 -18 -43 -30t-47 -12t-44 8.5t-34 23.5t-22 35.5t-8 43.5v163q0 23 9 43.5t24 35.5t35 23.5t43 8.5h106v125q0 20 -12.5 33.5t-32.5 13.5h-29q-20 0 -34.5 -13.5t-14.5 -33.5v-69h-69l-7 83q0 23 10.5 43.5t28 35.5t39.5 23.5t45 8.5h42 q23 0 44 -8.5t36.5 -23.5t24.5 -35.5t9 -43.5v-519h-71zM257 300h-90q-20 0 -33.5 -13.5t-13.5 -33.5v-131q0 -20 13.5 -33.5t33.5 -13.5h10q8 0 20 6t24 13.5t22 15.5t14 12v178zM96 768h75v-81h-75v81zM225 768h75v-81h-75v81z" />
<glyph unicode="&#xe5;" d="M123 721q0 30 20.5 50.5t49.5 20.5q30 0 50.5 -20.5t20.5 -50.5q0 -29 -20.5 -49.5t-50.5 -20.5q-29 0 -49.5 20.5t-20.5 49.5zM163 721q0 -13 8.5 -21.5t21.5 -8.5q14 0 22.5 8.5t8.5 21.5q0 14 -8.5 22.5t-22.5 8.5q-13 0 -21.5 -8.5t-8.5 -22.5zM266 0l-7 37h-21 q-20 -18 -43 -30t-47 -12t-44 8.5t-34 23.5t-22 35.5t-8 43.5v163q0 23 9 43.5t24 35.5t35 23.5t43 8.5h106v125q0 20 -12.5 33.5t-32.5 13.5h-29q-20 0 -34.5 -13.5t-14.5 -33.5v-69h-69l-7 83q0 23 10.5 43.5t28 35.5t39.5 23.5t45 8.5h42q23 0 44 -8.5t36.5 -23.5 t24.5 -35.5t9 -43.5v-519h-71zM257 300h-90q-20 0 -33.5 -13.5t-13.5 -33.5v-131q0 -20 13.5 -33.5t33.5 -13.5h10q8 0 20 6t24 13.5t22 15.5t14 12v178z" />
<glyph unicode="&#xe6;" horiz-adv-x="586" d="M546 228v-118q0 -23 -9 -44t-24.5 -37t-36 -25t-43.5 -9h-65q-30 0 -55.5 14.5t-40.5 38.5h-16q-31 -29 -59 -41t-49 -12q-24 0 -44 8.5t-34 23.5t-22 35.5t-8 43.5v163q0 23 9 43.5t24 35.5t35 23.5t43 8.5h106v129q-2 18 -14 30.5t-31 12.5h-29q-20 0 -34.5 -13.5 t-14.5 -33.5v-69h-74l-5 83q0 23 10.5 43.5t28 35.5t39.5 23.5t45 8.5h45q20 0 39 -7t34 -19q32 26 72 26h67q23 0 43.5 -8.5t35.5 -23.5t23.5 -35.5t8.5 -43.5v-219h-209v-184q2 -18 15 -30.5t32 -12.5h36q20 0 33.5 13.5t13.5 33.5v108h79zM257 300h-90q-20 0 -33.5 -13.5 t-13.5 -33.5v-131q0 -20 13.5 -33.5t33.5 -13.5h10q8 0 20 6t24 13.5t22 15.5t14 12v178zM337 378h129v127q0 20 -13.5 33.5t-33.5 13.5h-35q-19 0 -32 -12.5t-15 -30.5v-131z" />
<glyph unicode="&#xe7;" d="M133 -132h41q12 0 20.5 8.5t8.5 20.5v5q0 12 -8.5 20.5t-20.5 8.5h-25v38l17 26h-10q-24 0 -45 10t-36.5 26.5t-25 38.5t-9.5 46v400q0 23 9 44t25 36.5t36.5 24.5t43.5 9h67q23 0 44 -9t36.5 -24.5t24.5 -36.5t9 -44l-5 -80h-75v67q0 20 -13.5 34t-33.5 14h-41 q-20 0 -33.5 -13.5t-13.5 -33.5v-383q0 -20 13.5 -33.5t33.5 -13.5h43q20 0 33.5 14t13.5 34v106h80v-112q0 -24 -9 -46t-25 -38.5t-37 -26.5t-45 -10h-13l-17 -26q23 -5 37.5 -24t14.5 -43v-5q0 -29 -20 -49t-49 -20h-41v40z" />
<glyph unicode="&#xe8;" horiz-adv-x="369" d="M329 228v-118q0 -23 -9 -44t-24.5 -37t-36 -25t-43.5 -9h-65q-23 0 -43 8.5t-35 23.5t-24 35.5t-9 43.5v413q0 23 9 43.5t24 35.5t35 23.5t43 8.5h67q23 0 43.5 -8.5t35.5 -23.5t23.5 -35.5t8.5 -43.5v-219h-209v-180q0 -20 13.5 -33.5t33.5 -13.5h36q20 0 33 13.5 t14 33.5v108h79zM120 378h129v127q0 20 -13.5 33.5t-33.5 13.5h-35q-20 0 -33.5 -13.5t-13.5 -33.5v-127zM159 782l91 -91l-41 -40l-90 90z" />
<glyph unicode="&#xe9;" horiz-adv-x="369" d="M329 228v-118q0 -23 -9 -44t-24.5 -37t-36 -25t-43.5 -9h-65q-23 0 -43 8.5t-35 23.5t-24 35.5t-9 43.5v413q0 23 9 43.5t24 35.5t35 23.5t43 8.5h67q23 0 43.5 -8.5t35.5 -23.5t23.5 -35.5t8.5 -43.5v-219h-209v-180q0 -20 13.5 -33.5t33.5 -13.5h36q20 0 33 13.5 t14 33.5v108h79zM120 378h129v127q0 20 -13.5 33.5t-33.5 13.5h-35q-20 0 -33.5 -13.5t-13.5 -33.5v-127zM249 741l-90 -90l-41 40l91 91z" />
<glyph unicode="&#xea;" horiz-adv-x="369" d="M329 228v-118q0 -23 -9 -44t-24.5 -37t-36 -25t-43.5 -9h-65q-23 0 -43 8.5t-35 23.5t-24 35.5t-9 43.5v413q0 23 9 43.5t24 35.5t35 23.5t43 8.5h67q23 0 43.5 -8.5t35.5 -23.5t23.5 -35.5t8.5 -43.5v-219h-209v-180q0 -20 13.5 -33.5t33.5 -13.5h36q20 0 33 13.5 t14 33.5v108h79zM120 378h129v127q0 20 -13.5 33.5t-33.5 13.5h-35q-20 0 -33.5 -13.5t-13.5 -33.5v-127zM85 699l99 80l99 -80l-35 -45l-64 52l-64 -52z" />
<glyph unicode="&#xeb;" horiz-adv-x="369" d="M329 228v-118q0 -23 -9 -44t-24.5 -37t-36 -25t-43.5 -9h-65q-23 0 -43 8.5t-35 23.5t-24 35.5t-9 43.5v413q0 23 9 43.5t24 35.5t35 23.5t43 8.5h67q23 0 43.5 -8.5t35.5 -23.5t23.5 -35.5t8.5 -43.5v-219h-209v-180q0 -20 13.5 -33.5t33.5 -13.5h36q20 0 33 13.5 t14 33.5v108h79zM120 378h129v127q0 20 -13.5 33.5t-33.5 13.5h-35q-20 0 -33.5 -13.5t-13.5 -33.5v-127zM86 768h75v-81h-75v81zM215 768h75v-81h-75v81z" />
<glyph unicode="&#xec;" horiz-adv-x="160" d="M40 625h80v-625h-80v625zM55 782l91 -91l-41 -40l-90 90z" />
<glyph unicode="&#xed;" horiz-adv-x="160" d="M40 625h80v-625h-80v625zM146 741l-90 -90l-41 40l91 91z" />
<glyph unicode="&#xee;" horiz-adv-x="160" d="M40 625h80v-625h-80v625zM-19 699l99 80l99 -80l-35 -45l-64 52l-64 -52z" />
<glyph unicode="&#xef;" horiz-adv-x="160" d="M40 625h80v-625h-80v625zM-22 768h75v-81h-75v81zM107 768h75v-81h-75v81z" />
<glyph unicode="&#xf0;" d="M113 688l52 25l-59 47l42 45l79 -62l77 38l24 -49l-54 -26q32 -28 47.5 -53.5t15.5 -67.5v-476q0 -23 -9 -44t-25 -36.5t-36.5 -24.5t-43.5 -9h-69q-23 0 -44 9t-36.5 24.5t-24.5 36.5t-9 44v390q0 23 8 43.5t22 35.5t34 23.5t44 8.5t47 -12t43 -30h19v15q0 13 -1.5 24 t-6 21.5t-13.5 21.5t-24 25l-75 -36zM210 74q20 0 33.5 13.5t13.5 33.5v362q-4 4 -14 12t-22 15.5t-24 13.5t-20 6h-10q-20 0 -33.5 -13.5t-13.5 -33.5v-362q0 -20 13.5 -33.5t33.5 -13.5h43z" />
<glyph unicode="&#xf1;" d="M257 503q0 20 -13.5 33.5t-33.5 13.5h-10q-8 0 -20 -6t-24 -13.5t-22 -15.5t-14 -12v-503h-80v625h70l10 -37h19q20 18 43 30t47 12t44 -8.5t34 -23.5t22 -35.5t8 -43.5v-519h-80v503v0zM223 715q19 0 22 14t3 31h47q0 -41 -15.5 -68.5t-56.5 -27.5h-4q-17 1 -28.5 8 t-21 15t-17.5 15t-18 7q-19 0 -22 -14t-3 -31h-47q0 20 3.5 37.5t12 30.5t22 20.5t34.5 7.5q15 0 26.5 -7t21.5 -15.5t19.5 -15.5t21.5 -7z" />
<glyph unicode="&#xf2;" d="M337 116q0 -24 -9.5 -46t-25 -38.5t-36.5 -26.5t-45 -10h-65q-24 0 -45 10t-37 26.5t-25 38.5t-9 46v393q0 24 9 46t25 38.5t37 26.5t45 10h65q24 0 45 -10t36.5 -26.5t25 -38.5t9.5 -46v-393zM257 504q0 20 -13.5 33.5t-33.5 13.5h-43q-20 0 -33.5 -14t-13.5 -34v-381 q0 -20 13.5 -34t33.5 -14h43q20 0 33.5 13.5t13.5 33.5v383zM163 782l91 -91l-41 -40l-90 90z" />
<glyph unicode="&#xf3;" d="M337 116q0 -24 -9.5 -46t-25 -38.5t-36.5 -26.5t-45 -10h-65q-24 0 -45 10t-37 26.5t-25 38.5t-9 46v393q0 24 9 46t25 38.5t37 26.5t45 10h65q24 0 45 -10t36.5 -26.5t25 -38.5t9.5 -46v-393zM257 504q0 20 -13.5 33.5t-33.5 13.5h-43q-20 0 -33.5 -14t-13.5 -34v-381 q0 -20 13.5 -34t33.5 -14h43q20 0 33.5 13.5t13.5 33.5v383zM254 741l-90 -90l-41 40l91 91z" />
<glyph unicode="&#xf4;" d="M337 116q0 -24 -9.5 -46t-25 -38.5t-36.5 -26.5t-45 -10h-65q-24 0 -45 10t-37 26.5t-25 38.5t-9 46v393q0 24 9 46t25 38.5t37 26.5t45 10h65q24 0 45 -10t36.5 -26.5t25 -38.5t9.5 -46v-393zM257 504q0 20 -13.5 33.5t-33.5 13.5h-43q-20 0 -33.5 -14t-13.5 -34v-381 q0 -20 13.5 -34t33.5 -14h43q20 0 33.5 13.5t13.5 33.5v383zM89 699l99 80l99 -80l-35 -45l-64 52l-64 -52z" />
<glyph unicode="&#xf5;" d="M337 116q0 -24 -9.5 -46t-25 -38.5t-36.5 -26.5t-45 -10h-65q-24 0 -45 10t-37 26.5t-25 38.5t-9 46v393q0 24 9 46t25 38.5t37 26.5t45 10h65q24 0 45 -10t36.5 -26.5t25 -38.5t9.5 -46v-393zM257 504q0 20 -13.5 33.5t-33.5 13.5h-43q-20 0 -33.5 -14t-13.5 -34v-381 q0 -20 13.5 -34t33.5 -14h43q20 0 33.5 13.5t13.5 33.5v383zM233 715q19 0 22 14t3 31h47q0 -41 -15.5 -68.5t-56.5 -27.5h-4q-17 1 -28.5 8t-21 15t-17.5 15t-18 7q-19 0 -22 -14t-3 -31h-47q0 20 3.5 37.5t12 30.5t22 20.5t34.5 7.5q15 0 26.5 -7t21.5 -15.5t19.5 -15.5 t21.5 -7z" />
<glyph unicode="&#xf6;" d="M337 116q0 -24 -9.5 -46t-25 -38.5t-36.5 -26.5t-45 -10h-65q-24 0 -45 10t-37 26.5t-25 38.5t-9 46v393q0 24 9 46t25 38.5t37 26.5t45 10h65q24 0 45 -10t36.5 -26.5t25 -38.5t9.5 -46v-393zM257 504q0 20 -13.5 33.5t-33.5 13.5h-43q-20 0 -33.5 -14t-13.5 -34v-381 q0 -20 13.5 -34t33.5 -14h43q20 0 33.5 13.5t13.5 33.5v383zM86 768h75v-81h-75v81zM215 768h75v-81h-75v81z" />
<glyph unicode="&#xf7;" horiz-adv-x="406" d="M40 384h326v-71h-326v71zM157 552h92v-92h-92v92zM157 236h92v-92h-92v92z" />
<glyph unicode="&#xf8;" horiz-adv-x="387" d="M342 116q0 -24 -9.5 -46t-25 -38.5t-36.5 -26.5t-45 -10h-65q-39 0 -70 25l-8 -20h-60l30 71q-8 22 -8 45v393q0 24 9 46t25 38.5t37 26.5t45 10h65q32 0 61 -19l6 14h60l-26 -59q7 -13 11 -27.5t4 -29.5v-393zM215 74q20 0 33.5 13.5t13.5 33.5v283h-5l-129 -299 q5 -14 16.5 -22.5t27.5 -8.5h43zM125 246h4l124 286q-7 8 -17 13.5t-21 5.5h-43q-20 0 -33.5 -14t-13.5 -34v-257z" />
<glyph unicode="&#xf9;" d="M266 0l-7 37h-21q-20 -18 -43 -30t-47 -12t-44 8.5t-34 23.5t-22 35.5t-8 43.5v519h80v-503q0 -20 13.5 -33.5t33.5 -13.5h10q8 0 20 6t24 13.5t22 15.5t14 12v503h80v-625h-71zM163 782l91 -91l-41 -40l-90 90z" />
<glyph unicode="&#xfa;" d="M266 0l-7 37h-21q-20 -18 -43 -30t-47 -12t-44 8.5t-34 23.5t-22 35.5t-8 43.5v519h80v-503q0 -20 13.5 -33.5t33.5 -13.5h10q8 0 20 6t24 13.5t22 15.5t14 12v503h80v-625h-71zM254 741l-90 -90l-41 40l91 91z" />
<glyph unicode="&#xfb;" d="M266 0l-7 37h-21q-20 -18 -43 -30t-47 -12t-44 8.5t-34 23.5t-22 35.5t-8 43.5v519h80v-503q0 -20 13.5 -33.5t33.5 -13.5h10q8 0 20 6t24 13.5t22 15.5t14 12v503h80v-625h-71zM89 699l99 80l99 -80l-35 -45l-64 52l-64 -52z" />
<glyph unicode="&#xfc;" d="M81 768h75v-81h-75v81zM220 768h75v-81h-75v81zM337 0v625h-80v-503q-4 -4 -14 -12t-22 -15.5t-24 -13.5t-20 -6h-10q-20 0 -33.5 13.5t-13.5 33.5v503h-80v-519q0 -23 8 -43.5t22 -35.5t34 -23.5t44 -8.5t47 12t43 30h21l7 -37h71z" />
<glyph unicode="&#xfd;" horiz-adv-x="380" d="M260 625h80l-68 -712q-5 -49 -37 -78t-74 -29l-55 5v75h39q17 0 31.5 10.5t16.5 27.5l7 76h-100l-60 625h80l52 -545h35zM255 741l-90 -90l-41 40l91 91z" />
<glyph unicode="&#xfe;" d="M257 503q0 20 -13.5 33.5t-33.5 13.5h-10q-8 0 -20 -6t-24 -13.5t-22 -15.5t-14 -12v-381q4 -4 14 -12t22 -15.5t24 -13.5t20 -6h10q20 0 33.5 13.5t13.5 33.5v381zM40 757h80v-169h19q20 18 43 30t47 12t44 -8.5t34 -23.5t22 -35.5t8 -43.5v-413q0 -23 -8 -43.5 t-22 -35.5t-34 -23.5t-44 -8.5t-47 12t-43 30h-19v-231h-80v951z" />
<glyph unicode="&#xff;" horiz-adv-x="380" d="M260 625h80l-68 -712q-5 -49 -37 -78t-74 -29l-55 5v75h39q17 0 31.5 10.5t16.5 27.5l7 76h-100l-60 625h80l52 -545h35zM88 768h75v-81h-75v81zM217 768h75v-81h-75v81z" />
<glyph unicode="&#x152;" horiz-adv-x="664" d="M271 792q30 0 59 -13v8h289v-80h-209v-240h179v-80h-179v-307h214v-80h-294v8q-29 -13 -59 -13h-92q-29 0 -54 11t-44 29.5t-30 44t-11 54.5v519q0 29 11 54.5t30 44t44 29.5t54 11h92zM330 658q-2 23 -19 38.5t-40 15.5h-92q-24 0 -41.5 -17t-17.5 -42v-519 q0 -25 17.5 -42t41.5 -17h92q23 0 40 15.5t19 38.5v529z" />
<glyph unicode="&#x153;" horiz-adv-x="586" d="M546 228v-118q0 -23 -9 -44t-24.5 -37t-36 -25t-43.5 -9h-65q-16 0 -33 5.5t-29 22.5h-25q-13 -17 -29.5 -22.5t-30.5 -5.5h-65q-24 0 -45 10t-37 26.5t-25 38.5t-9 46v393q0 24 9 46t25 38.5t37 26.5t45 10h65q14 0 30.5 -5.5t28.5 -22.5h26q12 17 29 22.5t33 5.5h67 q23 0 43.5 -8.5t35.5 -23.5t23.5 -35.5t8.5 -43.5v-219h-209v-180q0 -20 13.5 -33.5t33.5 -13.5h36q20 0 33.5 13.5t13.5 33.5v108h79zM257 508q-2 18 -15.5 30.5t-31.5 12.5h-43q-20 0 -33.5 -14t-13.5 -34v-381q0 -20 13.5 -34t33.5 -14h43q18 0 31.5 12.5t15.5 30.5v391z M337 378h129v127q0 20 -13.5 33.5t-33.5 13.5h-35q-20 0 -33.5 -13.5t-13.5 -33.5v-127z" />
<glyph unicode="&#x178;" horiz-adv-x="450" d="M265 0h-80v321h-60l-103 466h80l85 -387h75l86 387h80l-103 -466h-60v-321zM123 930h75v-81h-75v81zM252 930h75v-81h-75v81z" />
<glyph unicode="&#x2c6;" horiz-adv-x="234" d="M18 699l99 80l99 -80l-35 -45l-64 52l-64 -52z" />
<glyph unicode="&#x2dc;" horiz-adv-x="293" d="M191 715q19 0 22 14t3 31h47q0 -41 -15.5 -68.5t-56.5 -27.5h-4q-17 1 -28.5 8t-21 15t-17.5 15t-18 7q-19 0 -22 -14t-3 -31h-47q0 20 3.5 37.5t12 30.5t22 20.5t34.5 7.5q15 0 26.5 -7t21.5 -15.5t19.5 -15.5t21.5 -7z" />
<glyph unicode="&#x2000;" horiz-adv-x="472" />
<glyph unicode="&#x2001;" horiz-adv-x="944" />
<glyph unicode="&#x2002;" horiz-adv-x="472" />
<glyph unicode="&#x2003;" horiz-adv-x="944" />
<glyph unicode="&#x2004;" horiz-adv-x="314" />
<glyph unicode="&#x2005;" horiz-adv-x="236" />
<glyph unicode="&#x2006;" horiz-adv-x="157" />
<glyph unicode="&#x2007;" horiz-adv-x="157" />
<glyph unicode="&#x2008;" horiz-adv-x="118" />
<glyph unicode="&#x2009;" horiz-adv-x="188" />
<glyph unicode="&#x200a;" horiz-adv-x="52" />
<glyph unicode="&#x2010;" horiz-adv-x="296" d="M30 377h236v-71h-236v71z" />
<glyph unicode="&#x2011;" horiz-adv-x="296" d="M30 377h236v-71h-236v71z" />
<glyph unicode="&#x2012;" horiz-adv-x="296" d="M30 377h236v-71h-236v71z" />
<glyph unicode="&#x2013;" horiz-adv-x="486" d="M30 377h426v-71h-426v71z" />
<glyph unicode="&#x2014;" horiz-adv-x="642" d="M30 377h582v-71h-582v71z" />
<glyph unicode="&#x2018;" horiz-adv-x="166" d="M131 578h-96v112l45 97h31l-20 -97v-15h40v-97z" />
<glyph unicode="&#x2019;" horiz-adv-x="166" d="M35 787h96v-112l-45 -97h-31l20 97v15h-40v97z" />
<glyph unicode="&#x201a;" horiz-adv-x="166" d="M35 97h96v-112l-45 -97h-31l20 97v15h-40v97z" />
<glyph unicode="&#x201c;" horiz-adv-x="296" d="M261 578h-96v112l45 97h31l-20 -97v-15h40v-97zM131 578h-96v112l45 97h31l-20 -97v-15h40v-97z" />
<glyph unicode="&#x201d;" horiz-adv-x="296" d="M35 787h96v-112l-45 -97h-31l20 97v15h-40v97zM165 787h96v-112l-45 -97h-31l20 97v15h-40v97z" />
<glyph unicode="&#x201e;" horiz-adv-x="296" d="M35 97h96v-112l-45 -97h-31l20 97v15h-40v97zM165 97h96v-112l-45 -97h-31l20 97v15h-40v97z" />
<glyph unicode="&#x2022;" horiz-adv-x="252" d="M55 386q0 30 20.5 50.5t50.5 20.5t50.5 -20.5t20.5 -50.5t-20.5 -50.5t-50.5 -20.5t-50.5 20.5t-20.5 50.5z" />
<glyph unicode="&#x2026;" horiz-adv-x="498" d="M35 97h96v-97h-96v97zM201 97h96v-97h-96v97zM367 97h96v-97h-96v97z" />
<glyph unicode="&#x202f;" horiz-adv-x="188" />
<glyph unicode="&#x2039;" horiz-adv-x="199" d="M117 295v-22l62 -142h-64l-75 120v65l75 121h64z" />
<glyph unicode="&#x203a;" horiz-adv-x="199" d="M20 437h64l75 -121v-65l-75 -120h-64l62 142v22z" />
<glyph unicode="&#x205f;" horiz-adv-x="236" />
<glyph unicode="&#x20ac;" horiz-adv-x="479" d="M349 494l-20 -70h-170v-68h140l-20 -70h-120v-152q0 -25 17.5 -42t41.5 -17h82q25 0 42 17t17 42v83h80v-83q0 -29 -11 -54.5t-29.5 -44t-44 -29.5t-54.5 -11h-82q-29 0 -54 11t-44 29.5t-30 44t-11 54.5v152h-39l20 70h19v68h-39l20 70h19v159q0 29 11 54.5t30 44 t44 29.5t54 11h82q29 0 54.5 -11t44 -29.5t29.5 -44t11 -54.5v-89h-80v89q0 25 -17 42t-42 17h-82q-24 0 -41.5 -17t-17.5 -42v-159h190z" />
<glyph unicode="&#x2122;" horiz-adv-x="396" d="M113 582h-41v164h-45v41h130v-41h-44v-164zM211 582h-39v205h80l17 -163h6l16 163h78v-205h-41v164h-5l-21 -164h-65l-22 164h-4v-164z" />
<glyph unicode="&#x25fc;" horiz-adv-x="625" d="M0 625h625v-625h-625v625z" />
</font>
</defs>
</svg>
