<?xml version="1.0" encoding="UTF-8" standalone="no"?>
<!-- Created with Inkscape (http://www.inkscape.org/) -->

<svg
   xmlns:dc="http://purl.org/dc/elements/1.1/"
   xmlns:cc="http://creativecommons.org/ns#"
   xmlns:rdf="http://www.w3.org/1999/02/22-rdf-syntax-ns#"
   xmlns:svg="http://www.w3.org/2000/svg"
   xmlns="http://www.w3.org/2000/svg"
   xmlns:sodipodi="http://sodipodi.sourceforge.net/DTD/sodipodi-0.dtd"
   xmlns:inkscape="http://www.inkscape.org/namespaces/inkscape"
   version="1.1"
   width="59.505085"
   height="45"
   id="svg2"
   xml:space="preserve"
   inkscape:version="0.91 r13725"
   sodipodi:docname="couch.svg"><metadata
     id="metadata29"><rdf:RDF><cc:Work
         rdf:about=""><dc:format>image/svg+xml</dc:format><dc:type
           rdf:resource="http://purl.org/dc/dcmitype/StillImage" /><dc:title></dc:title></cc:Work></rdf:RDF></metadata><sodipodi:namedview
     pagecolor="#ffffff"
     bordercolor="#666666"
     borderopacity="1"
     objecttolerance="10"
     gridtolerance="10"
     guidetolerance="10"
     inkscape:pageopacity="0"
     inkscape:pageshadow="2"
     inkscape:window-width="1366"
     inkscape:window-height="705"
     id="namedview27"
     showgrid="false"
     inkscape:zoom="9.9368421"
     inkscape:cx="27.964266"
     inkscape:cy="22.492848"
     inkscape:window-x="1358"
     inkscape:window-y="-8"
     inkscape:window-maximized="1"
     inkscape:current-layer="g12"
     fit-margin-top="0"
     fit-margin-left="0"
     fit-margin-right="0"
     fit-margin-bottom="0" /><defs
     id="defs6"><clipPath
       id="clipPath18"><path
         d="M 0,38 38,38 38,0 0,0 0,38 Z"
         id="path20"
         inkscape:connector-curvature="0" /></clipPath></defs><g
     transform="matrix(1.25,0,0,-1.25,-7.5,46.25)"
     id="g12"><path
       inkscape:connector-curvature="0"
       style="fill:#67757f;fill-opacity:1;fill-rule:nonzero;stroke:none"
       id="path32"
       d="m 49.9912,3 c 0,-1.104 -0.896,-2 -2,-2 -1.104,0 -2,0.896 -2,2 l 0,6 c 0,1.104 0.896,2 2,2 1.104,0 2,-0.896 2,-2 l 0,-6 z" /><path
       inkscape:connector-curvature="0"
       style="fill:#9aaab4;fill-opacity:1;fill-rule:nonzero;stroke:none"
       id="path28"
       d="m 51.84,10 c 0,-1.104 -0.896,-2 -2,-2 -1.104,0 -2,0.896 -2,2 l 0,11 c 0,1.104 0.896,2 2,2 1.104,0 2,-0.896 2,-2 l 0,-11 z" /><path
       inkscape:connector-curvature="0"
       style="fill:#4289c1;fill-opacity:1;fill-rule:nonzero;stroke:none"
       id="path40-1"
       d="m 49.933221,19 c 0,-2.209 -1.791,-4 -4,-4 l -12,0 c -2.209,0 -4,1.791 -4,4 l 0,14 c 0,2.209 1.791,4 4,4 l 12,0 c 2.209,0 4,-1.791 4,-4 l 0,-14 z" /><g
       id="g16"
       clip-path="url(#clipPath18)"><g
         id="g22"
         transform="translate(12,10)"><path
           inkscape:connector-curvature="0"
           style="fill:#9aaab4;fill-opacity:1;fill-rule:nonzero;stroke:none"
           id="path24"
           d="m 0,0 c 0,-1.104 -0.896,-2 -2,-2 -1.104,0 -2,0.896 -2,2 l 0,11 c 0,1.104 0.896,2 2,2 1.104,0 2,-0.896 2,-2 L 0,0 Z" /></g><g
         id="g26"
         transform="translate(32,10)" /><g
         id="g30"
         transform="translate(30,3)" /><g
         id="g34"
         transform="translate(14,3)"><path
           inkscape:connector-curvature="0"
           style="fill:#67757f;fill-opacity:1;fill-rule:nonzero;stroke:none"
           id="path36"
           d="m 0,0 c 0,-1.104 -0.896,-2 -2,-2 -1.104,0 -2,0.896 -2,2 l 0,6 c 0,1.104 0.896,2 2,2 1.104,0 2,-0.896 2,-2 L 0,0 Z" /></g><g
         id="g38"
         transform="translate(30,19)"><path
           inkscape:connector-curvature="0"
           style="fill:#4289c1;fill-opacity:1;fill-rule:nonzero;stroke:none"
           id="path40"
           d="m 0,0 c 0,-2.209 -1.791,-4 -4,-4 l -12,0 c -2.209,0 -4,1.791 -4,4 l 0,14 c 0,2.209 1.791,4 4,4 l 12,0 c 2.209,0 4,-1.791 4,-4 L 0,0 Z" /></g><path
         inkscape:connector-curvature="0"
         style="fill:#e1e8ed;fill-opacity:1;fill-rule:nonzero;stroke:none"
         id="path42"
         d="m 24,29 -8,0 0,8 8,0 0,-8 z" /><g
         id="g44"
         transform="translate(12,22)"><path
           inkscape:connector-curvature="0"
           style="fill:#ccd6dd;fill-opacity:1;fill-rule:nonzero;stroke:none"
           id="path46"
           d="m 0,0 c 0,-1.104 -0.896,-2 -2,-2 l -2,0 c -1.104,0 -2,0.896 -2,2 0,1.104 0.896,2 2,2 l 2,0 C -0.896,2 0,1.104 0,0" /></g><g
         id="g48"
         transform="translate(34,22)" /><g
         id="g52"
         transform="translate(30,14)"><path
           inkscape:connector-curvature="0"
           style="fill:#5dadec;fill-opacity:1;fill-rule:nonzero;stroke:none"
           id="path54"
           d="m 0,0 c 0,-1.657 -1.343,-3 -3,-3 l -14,0 c -1.657,0 -3,1.343 -3,3 0,1.657 1.343,3 3,3 L -3,3 C -1.343,3 0,1.657 0,0" /></g><path
         inkscape:connector-curvature="0"
         style="fill:#2a6797;fill-opacity:1;fill-rule:nonzero;stroke:none"
         id="path56"
         d="m 30,8 -20,0 0,6 20,0 0,-6 z" /></g><path
       inkscape:connector-curvature="0"
       style="fill:#ccd6dd;fill-opacity:1;fill-rule:nonzero;stroke:none"
       id="path50"
       d="m 53.604068,22 c 0,-1.104 -0.896,-2 -2,-2 l -2,0 c -1.104,0 -2,0.896 -2,2 0,1.104 0.896,2 2,2 l 2,0 c 1.104,0 2,-0.896 2,-2" /><path
       inkscape:connector-curvature="0"
       style="fill:#5dadec;fill-opacity:1;fill-rule:nonzero;stroke:none"
       id="path54-8"
       d="m 50.019661,14 c 0,-1.657 -1.343,-3 -3,-3 l -14,0 c -1.657,0 -3,1.343 -3,3 0,1.657 1.343,3 3,3 l 14,0 c 1.657,0 3,-1.343 3,-3" /><path
       inkscape:connector-curvature="0"
       style="fill:#2a6797;fill-opacity:1;fill-rule:nonzero;stroke:none"
       id="path56-3"
       d="m 49.92,8 -20,0 0,6 20,0 0,-6 z" /><path
       inkscape:connector-curvature="0"
       style="fill:#e1e8ed;fill-opacity:1;fill-rule:nonzero;stroke:none"
       id="path42-1"
       d="m 43.289153,29 -8,0 0,8 8,0 0,-8 z" /></g></svg>